<svg width="92" height="30" viewBox="0 0 92 30" fill="none" xmlns="http://www.w3.org/2000/svg">
<path d="M10.2812 16H3.42188V14.8594H2.28125V13.7188H1.14062V12.5781H0V3.42969H1.14062V2.28906H2.28125V1.14844H3.42188V0H10.2812V1.14844H11.4219V2.28906H12.5703V3.42969H13.7109V5.71875H11.4219V4.57812H10.2812V3.42969H9.14062V2.28906H4.57031V3.42969H3.42188V4.57812H2.28125V11.4297H3.42188V12.5781H4.57031V13.7188H9.14062V12.5781H10.2812V11.4297H11.4219V10.2891H13.7109V12.5781H12.5703V13.7188H11.4219V14.8594H10.2812V16Z" fill="white"/>
<path d="M26.9212 16H16.64V0H18.9212V13.7188H26.9212V16Z" fill="white"/>
<path d="M31.5613 16H29.28V0H31.5613V16Z" fill="white"/>
<path d="M44.7637 16H37.9044V14.8594H36.7637V13.7188H35.6231V12.5781H34.4825V3.42969H35.6231V2.28906H36.7637V1.14844H37.9044V0H44.7637V1.14844H45.9044V2.28906H47.0528V3.42969H48.1934V5.71875H45.9044V4.57812H44.7637V3.42969H43.6231V2.28906H39.0528V3.42969H37.9044V4.57812H36.7637V11.4297H37.9044V12.5781H39.0528V13.7188H43.6231V12.5781H44.7637V11.4297H45.9044V10.2891H48.1934V12.5781H47.0528V13.7188H45.9044V14.8594H44.7637V16Z" fill="white"/>
<path d="M53.4038 16H51.1225V0H53.4038V5.71875H54.5444V4.57812H55.6928V3.42969H56.8334V2.28906H57.9741V1.14844H59.1225V0H61.9741V1.14844H60.8334V2.28906H59.6928V3.42969H58.5444V4.57812H57.4038V5.71875H56.2631V6.85938H55.1225V9.14844H56.2631V10.2891H57.4038V11.4297H58.5444V12.5781H59.6928V13.7188H60.8334V14.8594H61.9741V16H59.1225V14.8594H57.9741V13.7188H56.8334V12.5781H55.6928V11.4297H54.5444V10.2891H53.4038V16Z" fill="white"/>
<path d="M75.7469 16H64.325V0H75.7469V2.28906H66.6062V6.28906H74.6062V8.57812H66.6062V13.7188H75.7469V16Z" fill="white"/>
<path d="M80.965 16H78.6837V0H88.965V1.14844H90.1056V2.28906H91.2541V7.42969H90.1056V8.57812H88.965V9.71875H90.1056V10.8594H91.2541V16H88.965V12H87.8244V10.8594H86.6837V9.71875H80.965V16ZM80.965 7.42969H87.8244V6.28906H88.965V3.42969H87.8244V2.28906H80.965V7.42969Z" fill="white"/>
<path d="M1.54001 28.9999V21.1039H4.93601C6.95201 21.1039 8.16401 22.0519 8.16401 23.9599C8.16401 25.7119 7.18001 26.7439 5.11601 26.7439H3.50801V28.9999H1.54001ZM3.50801 25.4239H5.03201C5.86001 25.4239 6.31601 24.9799 6.31601 24.0559C6.31601 23.1559 5.81201 22.6519 4.87601 22.6519H3.50801V25.4239Z" fill="#676767"/>
<path d="M8.98141 28.9999V21.1039H12.6654C14.7534 21.1039 15.8814 21.9679 15.8814 23.4559C15.8814 24.4639 15.4494 25.0999 14.7054 25.3159V25.3399C15.4854 25.5199 15.8334 26.1439 15.8334 27.0319V28.9999H13.8654V27.0919C13.8654 26.3719 13.6014 26.0599 12.8574 26.0599H10.9494V28.9999H8.98141ZM10.9494 24.8719H12.7494C13.5774 24.8719 13.9974 24.4999 13.9974 23.7679C13.9974 23.0719 13.5654 22.6519 12.6534 22.6519H10.9494V24.8719Z" fill="#676767"/>
<path d="M20.9593 29.1199C18.5713 29.1199 16.7233 27.5959 16.7233 25.0159C16.7233 22.4839 18.5713 20.9839 20.9593 20.9839C23.3473 20.9839 25.1953 22.4839 25.1953 25.0159C25.1953 27.5959 23.3473 29.1199 20.9593 29.1199ZM20.9593 27.5719C22.2073 27.5719 23.1553 26.6239 23.1553 25.0279C23.1553 23.4559 22.2073 22.5319 20.9593 22.5319C19.7113 22.5319 18.7633 23.4559 18.7633 25.0279C18.7633 26.6239 19.7113 27.5719 20.9593 27.5719Z" fill="#676767"/>
<path d="M28.8084 28.9999V27.4519H31.2084V24.2479H29.4924V22.9879L30.4284 22.9639C31.2324 22.9399 31.4964 22.4599 31.5324 21.0799H33.1404V27.4519H35.0724V28.9999H28.8084Z" fill="#676767"/>
<path d="M36.3146 28.9999V27.1999H38.0906V28.9999H36.3146Z" fill="#676767"/>
<path d="M42.4636 29.1079C40.1716 29.1079 39.1636 27.4639 39.1636 25.0159C39.1636 22.5079 40.2676 20.9959 42.4636 20.9959C44.6716 20.9959 45.7876 22.5079 45.7876 25.0159C45.7876 27.4639 44.7796 29.1079 42.4636 29.1079ZM42.4636 27.5599C43.4356 27.5599 43.8796 26.6359 43.8796 25.0279C43.8796 23.4079 43.3876 22.5439 42.4636 22.5439C41.5516 22.5439 41.0716 23.4079 41.0716 25.0279C41.0716 26.6359 41.5036 27.5599 42.4636 27.5599Z" fill="#676767"/>
</svg>
