<svg width="24" height="24" viewBox="0 0 24 24" fill="none" xmlns="http://www.w3.org/2000/svg">
<g clip-path="url(#clip0_167_1068)">
<path fill-rule="evenodd" clip-rule="evenodd" d="M6.54521 4.40232C7.62407 3.32345 8.99863 2.58872 10.4951 2.29106C11.9915 1.99339 13.5426 2.14616 14.9522 2.73004C16.3618 3.31393 17.5666 4.3027 18.4143 5.57132C19.2619 6.83994 19.7144 8.33143 19.7144 9.85718V15.8572C19.7144 16.3118 19.895 16.7479 20.2165 17.0694C20.538 17.3909 20.974 17.5715 21.4286 17.5715C21.656 17.5715 21.874 17.6618 22.0347 17.8225C22.1955 17.9833 22.2858 18.2013 22.2858 18.4286C22.2858 18.6559 22.1955 18.874 22.0347 19.0347C21.874 19.1954 21.656 19.2858 21.4286 19.2858H2.5715C2.34417 19.2858 2.12615 19.1954 1.96541 19.0347C1.80466 18.874 1.71436 18.6559 1.71436 18.4286C1.71436 18.2013 1.80466 17.9833 1.96541 17.8225C2.12615 17.6618 2.34417 17.5715 2.5715 17.5715C2.79662 17.5715 3.01954 17.5271 3.22753 17.441C3.43551 17.3548 3.6245 17.2285 3.78368 17.0694C3.94287 16.9102 4.06914 16.7212 4.15529 16.5132C4.24144 16.3052 4.28578 16.0823 4.28578 15.8572V9.85718C4.28577 8.84412 4.4853 7.84098 4.87298 6.90503C5.26065 5.96909 5.82888 5.11867 6.54521 4.40232ZM9.00007 22.7143C9.00007 22.3733 9.13553 22.0463 9.37665 21.8052C9.61777 21.5641 9.94479 21.4286 10.2858 21.4286H13.7144C14.0553 21.4286 14.3824 21.5641 14.6235 21.8052C14.8646 22.0463 15.0001 22.3733 15.0001 22.7143C15.0001 23.0553 14.8646 23.3823 14.6235 23.6235C14.3824 23.8646 14.0553 24 13.7144 24H10.2858C9.94479 24 9.61777 23.8646 9.37665 23.6235C9.13553 23.3823 9.00007 23.0553 9.00007 22.7143Z" fill="#989898"/>
</g>
<defs>
<clipPath id="clip0_167_1068">
<rect width="24" height="24" fill="white"/>
</clipPath>
</defs>
</svg>
