<svg width="24" height="24" viewBox="0 0 24 24" fill="none" xmlns="http://www.w3.org/2000/svg">
<path fill-rule="evenodd" clip-rule="evenodd" d="M17.2 5.76C17.2 7.28765 16.5995 8.75273 15.5305 9.83294C14.4616 10.9131 13.0117 11.52 11.5 11.52C9.98827 11.52 8.53845 10.9131 7.46949 9.83294C6.40053 8.75273 5.8 7.28765 5.8 5.76C5.8 4.23235 6.40053 2.76727 7.46949 1.68706C8.53845 0.606855 9.98827 0 11.5 0C13.0117 0 14.4616 0.606855 15.5305 1.68706C16.5995 2.76727 17.2 4.23235 17.2 5.76ZM11.5 13.44C8.98044 13.44 6.56408 14.4514 4.78249 16.2518C3.00089 18.0521 2 20.4939 2 23.04C2 23.2946 2.10009 23.5388 2.27825 23.7188C2.45641 23.8989 2.69804 24 2.95 24H20.05C20.302 24 20.5436 23.8989 20.7218 23.7188C20.8999 23.5388 21 23.2946 21 23.04C21 20.4939 19.9991 18.0521 18.2175 16.2518C16.4359 14.4514 14.0196 13.44 11.5 13.44Z" fill="#B6B6B6"/>
</svg>
